<svg xmlns="http://www.w3.org/2000/svg" width="24.662" height="24.664" viewBox="0 0 24.662 24.664"><defs><style>.a{fill:#ffffff;}</style></defs><g transform="translate(10.116)"><path class="a" d="M212.968,0a2.976,2.976,0,0,0-2.939,2.939,2.976,2.976,0,0,0,2.939,2.939,2.939,2.939,0,0,0,0-5.877Z" transform="translate(-210.029)"/></g><g transform="translate(8.671 5.877)"><path class="a" d="M187.621,122a4.309,4.309,0,0,1-3.208,1.445A4.415,4.415,0,0,1,181.157,122a4.3,4.3,0,0,0-1.128,2.89v.723a.722.722,0,0,0,.723.723h7.274a.722.722,0,0,0,.723-.723v-.723A4.3,4.3,0,0,0,187.621,122Z" transform="translate(-180.029 -122)"/></g><g transform="translate(0 13.996)"><path class="a" d="M7.006,298.715l-3.682-7.383a1.445,1.445,0,0,0-1.935-.65l-.962.477a.723.723,0,0,0-.325.971L4.436,300.8a.723.723,0,0,0,.967.325l.95-.471A1.445,1.445,0,0,0,7.006,298.715Z" transform="translate(-0.024 -290.532)"/></g><g transform="translate(4.287 11.392)"><path class="a" d="M108.8,237.019a1.441,1.441,0,0,0-1.908.188l-3.95,4.856a1.747,1.747,0,0,1-1.069.462H98.507a.723.723,0,1,1,0-1.445h2.89a1.445,1.445,0,0,0,0-2.89H97.611c-.36,0-.54-.228-.824-.477a5.028,5.028,0,0,0-4.486-1.1,5.272,5.272,0,0,0-2.218,1.108l-.021-.017-1.045.92,4.107,8.236H101.4a4.353,4.353,0,0,0,3.468-1.734l4.239-6.07A1.456,1.456,0,0,0,108.8,237.019Z" transform="translate(-89.016 -236.479)"/></g></svg>