<?xml version="1.0"?>
<svg xmlns="http://www.w3.org/2000/svg" height="512" viewBox="0 0 128 128" width="512" class=""><g><circle cx="66" cy="65.993" fill="#e6e7e8" r="41" data-original="#E6E7E8" class=""/><path d="m57 17.076h3.56v4.714a1 1 0 0 0 1 1h8.88a1 1 0 0 0 1-1v-4.714h3.56a1 1 0 0 0 .739-1.674l-9-9.88a1.031 1.031 0 0 0 -1.478 0l-9 9.88a1 1 0 0 0 .739 1.674z" fill="#e6e7e8" data-original="#E6E7E8" class=""/><path d="m75 114.91h-3.56v-4.71a1 1 0 0 0 -1-1h-8.88a1 1 0 0 0 -1 1v4.714h-3.56a1 1 0 0 0 -.739 1.674l9 9.88a1 1 0 0 0 1.478 0l9-9.88a1 1 0 0 0 -.739-1.678z" fill="#e6e7e8" data-original="#E6E7E8" class=""/><path d="m22.8 61.553a1 1 0 0 0 -1-1h-4.717v-3.56a1 1 0 0 0 -1.673-.739l-9.88 9a1 1 0 0 0 0 1.478l9.88 9a1 1 0 0 0 1.673-.739v-3.56h4.717a1 1 0 0 0 1-1z" fill="#e6e7e8" data-original="#E6E7E8" class=""/><path d="m126.471 65.254-9.88-9a1 1 0 0 0 -1.674.739v3.56h-4.717a1 1 0 0 0 -1 1v8.88a1 1 0 0 0 1 1h4.714v3.56a1 1 0 0 0 1.674.739l9.88-9a1 1 0 0 0 0-1.478z" fill="#e6e7e8" data-original="#E6E7E8" class=""/><path d="m32.311 93.4a1 1 0 0 0 -1.414 0l-3.334 3.333-2.517-2.516a1 1 0 0 0 -1.706.66l-.622 13.35a1 1 0 0 0 1 1.047h.047l13.35-.623a1 1 0 0 0 .66-1.706l-2.517-2.517 3.334-3.333a1 1 0 0 0 0-1.414z" fill="#e6e7e8" data-original="#E6E7E8" class=""/><path d="m99.689 38.584a1 1 0 0 0 1.415 0l3.333-3.333 2.516 2.516a1 1 0 0 0 1.706-.66l.623-13.35a1 1 0 0 0 -.292-.757.968.968 0 0 0 -.754-.292l-13.35.623a1 1 0 0 0 -.66 1.706l2.516 2.516-3.333 3.333a1 1 0 0 0 0 1.414z" fill="#e6e7e8" data-original="#E6E7E8" class=""/><path d="m108.022 93.993a1 1 0 0 0 -1.069.226l-2.516 2.516-3.337-3.335a1 1 0 0 0 -1.415 0l-6.28 6.28a1 1 0 0 0 0 1.414l3.333 3.333-2.516 2.517a1 1 0 0 0 .66 1.706l13.35.623h.047a1 1 0 0 0 1-1.047l-.623-13.35a1 1 0 0 0 -.634-.883z" fill="#e6e7e8" data-original="#E6E7E8" class=""/><path d="m23.978 37.993a1 1 0 0 0 1.068-.226l2.517-2.516 3.337 3.333a1 1 0 0 0 1.414 0l6.28-6.281a1 1 0 0 0 0-1.414l-3.334-3.333 2.517-2.516a1 1 0 0 0 -.66-1.706l-13.35-.623a1 1 0 0 0 -1.046 1.046l.622 13.35a1 1 0 0 0 .635.886z" fill="#e6e7e8" data-original="#E6E7E8" class=""/><circle cx="62" cy="61.993" fill="#fa759e" r="40" data-original="#FA759E" class="" data-old_color="#fa759e" style="fill:#FFFFFF"/><path d="m62 21.993c.5 0 1 .019 1.5.038a39.99 39.99 0 0 0 0 79.924c-.5.018-1 .038-1.5.038a40 40 0 0 1 0-80z" fill="#fff" data-original="#FFF" class=""/><path d="m38.5 76.335 23.5-47.531 23.5 47.531z" fill="#d4fbff" data-original="#D4FBFF" class="" style="fill:#FFFFFF" data-old_color="#d4fbff"/><path d="m55.993 76.335 6.007-47.531-23.5 47.531z" fill="#d4fbff" data-original="#D4FBFF" class="" style="fill:#FFFFFF" data-old_color="#d4fbff"/><path d="m62 28.804 6.007 47.531h17.493z" fill="#d4fbff" data-original="#D4FBFF" class="" style="fill:#FFFFFF" data-old_color="#d4fbff"/><path d="m55.993 76.335 6.007-47.531 6.007 47.531-6.007 8.746z" fill="#6dc9f7" data-original="#6DC9F7" class="" style="fill:#FFFFFF" data-old_color="#6dc9f7"/><path d="m62 28.804 6.007 47.531-6.007 8.746z" fill="#0089ef" data-original="#0089EF" class="" style="fill:#FFFFFF" data-old_color="#0089ef"/><path d="m62 2.196 9 9.88h-4.559v5.714h-8.881v-5.714h-4.56z" fill="#0089ef" data-original="#0089EF" class="" style="fill:#FFFFFF" data-old_color="#0089ef"/><path d="m62 121.79 9-9.88h-4.559v-5.714h-8.881v5.714h-4.56z" fill="#0089ef" data-original="#0089EF" class="" style="fill:#FFFFFF" data-old_color="#0089ef"/><path d="m2.203 61.993 9.88-9v4.559h5.714v8.881h-5.714v4.56z" fill="#0089ef" data-original="#0089EF" class="" style="fill:#FFFFFF" data-old_color="#0089ef"/><path d="m121.797 61.993-9.88-9v4.559h-5.714v8.881h5.714v4.56z" fill="#0089ef" data-original="#0089EF" class="" style="fill:#FFFFFF" data-old_color="#0089ef"/><path d="m19.717 104.276.623-13.351 3.224 3.225 4.04-4.041 6.28 6.28-4.041 4.04 3.224 3.224z" fill="#0089ef" data-original="#0089EF" class="" style="fill:#FFFFFF" data-old_color="#0089ef"/><path d="m104.283 19.71-13.35.622 3.224 3.225-4.041 4.04 6.28 6.28 4.04-4.041 3.224 3.224z" fill="#0089ef" data-original="#0089EF" class="" style="fill:#FFFFFF" data-old_color="#0089ef"/><path d="m104.283 104.276-.623-13.351-3.224 3.225-4.04-4.041-6.28 6.28 4.041 4.04-3.224 3.224z" fill="#0089ef" data-original="#0089EF" class="" style="fill:#FFFFFF" data-old_color="#0089ef"/><path d="m19.717 19.71 13.35.622-3.224 3.225 4.041 4.04-6.28 6.28-4.04-4.041-3.224 3.224z" fill="#0089ef" data-original="#0089EF" class="" style="fill:#FFFFFF" data-old_color="#0089ef"/><g fill="#3a2c60"><path d="m101.207 70.019a1 1 0 0 0 -1.2.751 38.778 38.778 0 0 1 -3.307 9.052 1 1 0 0 0 .431 1.347.987.987 0 0 0 .457.111 1 1 0 0 0 .89-.542 40.844 40.844 0 0 0 3.484-9.52 1 1 0 0 0 -.755-1.199z" data-original="#3A2C60" class="active-path" style="fill:#3A2C60"/><path d="m102.734 66.682a41 41 0 1 0 -40.734 36.311 40.929 40.929 0 0 0 34.233-18.431 1 1 0 1 0 -1.668-1.1 39.006 39.006 0 1 1 6.435-21.469 39.751 39.751 0 0 1 -.252 4.463 1 1 0 0 0 .88 1.106.983.983 0 0 0 1.106-.88z" data-original="#3A2C60" class="active-path" style="fill:#3A2C60"/><path d="m65.565 87.08v5.72a1 1 0 0 0 2 0v-5.72a1 1 0 1 0 -2 0z" data-original="#3A2C60" class="active-path" style="fill:#3A2C60"/><path d="m62 87.96a1 1 0 0 0 -1 1v6.221a1 1 0 0 0 2 0v-6.221a1 1 0 0 0 -1-1z" data-original="#3A2C60" class="active-path" style="fill:#3A2C60"/><path d="m56.435 87.08v5.72a1 1 0 0 0 2 0v-5.72a1 1 0 1 0 -2 0z" data-original="#3A2C60" class="active-path" style="fill:#3A2C60"/><path d="m85.5 77.336a1 1 0 0 0 .9-1.444l-23.5-47.531a1.041 1.041 0 0 0 -1.793 0l-23.507 47.531a1 1 0 0 0 .9 1.444h16.966l5.71 8.312a1 1 0 0 0 1.648 0l5.71-8.312zm-16.611-2-5.152-40.762 20.153 40.762zm-8.626-40.762-5.152 40.762h-15zm.737 10.118v37.167l-3.967-5.775zm2 37.167v-37.168l3.968 31.393z" data-original="#3A2C60" class="active-path" style="fill:#3A2C60"/><path d="m53 13.076h3.56v4.714a1 1 0 0 0 1 1h8.88a1 1 0 0 0 1-1v-4.714h3.56a1 1 0 0 0 .739-1.674l-9-9.88a1.031 1.031 0 0 0 -1.478 0l-9 9.88a1 1 0 0 0 .739 1.674zm9-9.395 6.736 7.4h-2.3a1 1 0 0 0 -1 1v4.709h-6.876v-4.714a1 1 0 0 0 -1-1h-2.3z" data-original="#3A2C60" class="active-path" style="fill:#3A2C60"/><path d="m71 110.91h-3.56v-4.71a1 1 0 0 0 -1-1h-8.88a1 1 0 0 0 -1 1v4.714h-3.56a1 1 0 0 0 -.739 1.674l9 9.88a1 1 0 0 0 1.478 0l9-9.88a1 1 0 0 0 -.739-1.678zm-9 9.39-6.736-7.394h2.3a1 1 0 0 0 1-1v-4.706h6.88v4.714a1 1 0 0 0 1 1h2.3z" data-original="#3A2C60" class="active-path" style="fill:#3A2C60"/><path d="m18.8 57.552a1 1 0 0 0 -1-1h-4.717v-3.559a1 1 0 0 0 -1.673-.739l-9.88 9a1 1 0 0 0 0 1.478l9.88 9a1 1 0 0 0 1.673-.739v-3.56h4.717a1 1 0 0 0 1-1zm-2 7.881h-4.717a1 1 0 0 0 -1 1v2.3l-7.395-6.74 7.4-6.736v2.3a1 1 0 0 0 1 1h4.712z" data-original="#3A2C60" class="active-path" style="fill:#3A2C60"/><path d="m122.471 61.254-9.88-9a1 1 0 0 0 -1.674.739v3.559h-4.717a1 1 0 0 0 -1 1v8.881a1 1 0 0 0 1 1h4.714v3.56a1 1 0 0 0 1.674.739l9.88-9a1 1 0 0 0 0-1.478zm-9.554 7.475v-2.3a1 1 0 0 0 -1-1h-4.717v-6.877h4.714a1 1 0 0 0 1-1v-2.3l7.395 6.736z" data-original="#3A2C60" class="active-path" style="fill:#3A2C60"/><path d="m28.311 89.4a1 1 0 0 0 -1.414 0l-3.334 3.333-2.517-2.517a1 1 0 0 0 -1.706.661l-.622 13.35a1 1 0 0 0 1 1.047h.047l13.35-.623a1 1 0 0 0 .66-1.706l-2.517-2.517 3.333-3.328a1 1 0 0 0 0-1.414zm.825 10.32a1 1 0 0 0 0 1.414l1.624 1.623-9.993.467.466-9.993 1.623 1.623a1 1 0 0 0 1.414 0l3.33-3.331 4.866 4.866z" data-original="#3A2C60" class="active-path" style="fill:#3A2C60"/><path d="m95.689 34.584a1 1 0 0 0 1.414 0l3.334-3.333 2.516 2.516a1 1 0 0 0 1.706-.66l.623-13.35a1 1 0 0 0 -.292-.757.977.977 0 0 0 -.754-.292l-13.35.623a1 1 0 0 0 -.66 1.706l2.516 2.516-3.333 3.333a1 1 0 0 0 0 1.414zm-.826-10.321a1 1 0 0 0 0-1.414l-1.623-1.623 9.993-.467-.466 9.994-1.623-1.623a1 1 0 0 0 -1.415 0l-3.329 3.333-4.87-4.863z" data-original="#3A2C60" class="active-path" style="fill:#3A2C60"/><path d="m104.021 89.993a1 1 0 0 0 -1.068.225l-2.516 2.517-3.337-3.335a1 1 0 0 0 -1.414 0l-6.28 6.28a1 1 0 0 0 0 1.414l3.333 3.333-2.516 2.517a1 1 0 0 0 .66 1.706l13.35.623h.047a1 1 0 0 0 1-1.047l-.623-13.35a1 1 0 0 0 -.636-.883zm-10.781 12.766 1.623-1.623a1 1 0 0 0 0-1.414l-3.333-3.333 4.87-4.866 3.333 3.333a1 1 0 0 0 1.415 0l1.623-1.623.466 9.993z" data-original="#3A2C60" class="active-path" style="fill:#3A2C60"/><path d="m19.978 33.993a1 1 0 0 0 1.068-.226l2.517-2.516 3.337 3.333a1 1 0 0 0 1.414 0l6.28-6.281a1 1 0 0 0 0-1.414l-3.334-3.333 2.517-2.516a1 1 0 0 0 -.66-1.706l-13.35-.623a1 1 0 0 0 -1.046 1.046l.622 13.35a1 1 0 0 0 .635.886zm10.782-12.767-1.624 1.623a1 1 0 0 0 0 1.414l3.334 3.337-4.87 4.863-3.33-3.333a1 1 0 0 0 -1.414 0l-1.623 1.623-.466-9.994z" data-original="#3A2C60" class="active-path" style="fill:#3A2C60"/></g></g> </svg>
