<?xml version="1.0"?>
<svg xmlns="http://www.w3.org/2000/svg" id="Capa_1" enable-background="new 0 0 512 512" height="512px" viewBox="0 0 512 512" width="512px"><g><g><g><path d="m0 0v112h512v-112zm91 71h-30v-30h30zm60 0h-30v-30h30zm60 0h-30v-30h30zm240 0h-150v-30h150z" data-original="#000000" class="active-path" data-old_color="#000000" fill="#FFFFFF"/></g><g><path d="m0 202v110h512v-110zm91 70h-30v-30h30zm60 0h-30v-30h30zm60 0h-30v-30h30zm240 0h-150v-30h150z" data-original="#000000" class="active-path" data-old_color="#000000" fill="#FFFFFF"/></g><g><path d="m0 402v110h512v-110zm91 70h-30v-30h30zm60 0h-30v-30h30zm60 0h-30v-30h30zm240 0h-150v-30h150z" data-original="#000000" class="active-path" data-old_color="#000000" fill="#FFFFFF"/></g><g><path d="m31 142h450v30h-450z" data-original="#000000" class="active-path" data-old_color="#000000" fill="#FFFFFF"/></g><g><path d="m31 342h450v30h-450z" data-original="#000000" class="active-path" data-old_color="#000000" fill="#FFFFFF"/></g></g></g> </svg>
