<?xml version="1.0"?>
<svg xmlns="http://www.w3.org/2000/svg" id="Capa_1" enable-background="new 0 0 512 512" height="512px" viewBox="0 0 512 512" width="512px"><g><path d="m356.333 0v89.666h-200.666v-89.666h-109.224v512h419.113v-512zm-161.501 324.333v-30h183.835v30zm167.774 59.606-63.939 63.941-42.607-42.607 21.213-21.213 21.394 21.393 42.727-42.727zm-167.774-123.606v-30h183.835v30zm-30 0h-31.499v-30h31.499zm0 34v30h-31.499v-30zm48.501 96v30h-80v-30zm165.334-224v30h-183.835v-30zm-213.835 0v30h-31.499v-30z" data-original="#000000" class="active-path" data-old_color="#000000" fill="#FFFFFF"/><path d="m185.667 0h140.666v59.667h-140.666z" data-original="#000000" class="active-path" data-old_color="#000000" fill="#FFFFFF"/></g> </svg>
