<?xml version="1.0"?>
<svg xmlns="http://www.w3.org/2000/svg" height="512px" viewBox="0 0 448 448" width="512px"><g><path d="m271.777344 166.726562c-12.695313 5.082032-26.128906 8.085938-39.777344 8.898438v40.375h47.792969c-.546875-16.699219-3.238281-33.261719-8.015625-49.273438zm0 0" data-original="#000000" class="active-path" data-old_color="#000000" fill="#FFFFFF"/><path d="m279.792969 232h-47.792969v40.375c13.648438.8125 27.082031 3.816406 39.777344 8.898438 4.777344-16.011719 7.46875-32.574219 8.015625-49.273438zm0 0" data-original="#000000" class="active-path" data-old_color="#000000" fill="#FFFFFF"/><path d="m266.3125 296.34375c-10.941406-4.472656-22.523438-7.171875-34.3125-8v46.289062c13.519531-4.046874 25.601562-18.128906 34.3125-38.289062zm0 0" data-original="#000000" class="active-path" data-old_color="#000000" fill="#FFFFFF"/><path d="m232 113.335938v46.289062c11.789062-.828125 23.371094-3.527344 34.3125-8-8.710938-20.128906-20.792969-34.210938-34.3125-38.289062zm0 0" data-original="#000000" class="active-path" data-old_color="#000000" fill="#FFFFFF"/><path d="m216 334.664062v-46.289062c-11.789062.828125-23.371094 3.527344-34.3125 8 8.710938 20.128906 20.792969 34.210938 34.3125 38.289062zm0 0" data-original="#000000" class="active-path" data-old_color="#000000" fill="#FFFFFF"/><path d="m286.441406 288.425781c6.523438 3.667969 12.714844 7.910157 18.496094 12.671875 17.9375-18.769531 28.773438-43.203125 30.648438-69.097656h-39.808594c-.496094 19.148438-3.636719 38.136719-9.335938 56.425781zm0 0" data-original="#000000" class="active-path" data-old_color="#000000" fill="#FFFFFF"/><path d="m266.785156 327.449219c9.4375-3.914063 18.289063-9.113281 26.304688-15.449219-3.929688-3.09375-8.0625-5.914062-12.371094-8.449219-3.664062 8.5-8.34375 16.519531-13.933594 23.898438zm0 0" data-original="#000000" class="active-path" data-old_color="#000000" fill="#FFFFFF"/><path d="m295.777344 216h39.808594c-1.871094-25.894531-12.710938-50.328125-30.648438-69.097656-5.78125 4.761718-11.972656 9.003906-18.496094 12.671875 5.699219 18.289062 8.839844 37.277343 9.335938 56.425781zm0 0" data-original="#000000" class="active-path" data-old_color="#000000" fill="#FFFFFF"/><path d="m293.078125 136c-8.007813-6.335938-16.859375-11.53125-26.292969-15.441406 5.589844 7.375 10.269532 15.394531 13.933594 23.890625 4.308594-2.53125 8.4375-5.355469 12.359375-8.449219zm0 0" data-original="#000000" class="active-path" data-old_color="#000000" fill="#FFFFFF"/><path d="m154.921875 312c8.007813 6.335938 16.859375 11.53125 26.292969 15.441406-5.589844-7.375-10.269532-15.394531-13.933594-23.890625-4.308594 2.53125-8.4375 5.355469-12.359375 8.449219zm0 0" data-original="#000000" class="active-path" data-old_color="#000000" fill="#FFFFFF"/><path d="m161.601562 288.425781c-5.714843-18.289062-8.871093-37.273437-9.378906-56.425781h-39.808594c1.871094 25.894531 12.710938 50.328125 30.648438 69.097656 5.792969-4.765625 11.996094-9.003906 18.539062-12.671875zm0 0" data-original="#000000" class="active-path" data-old_color="#000000" fill="#FFFFFF"/><path d="m161.601562 159.574219c-6.527343-3.667969-12.71875-7.910157-18.496093-12.671875-17.953125 18.765625-28.804688 43.199218-30.691407 69.097656h39.808594c.507813-19.152344 3.664063-38.136719 9.378906-56.425781zm0 0" data-original="#000000" class="active-path" data-old_color="#000000" fill="#FFFFFF"/><path d="m176.222656 281.273438c12.695313-5.082032 26.128906-8.085938 39.777344-8.898438v-40.375h-47.792969c.546875 16.699219 3.238281 33.261719 8.015625 49.273438zm0 0" data-original="#000000" class="active-path" data-old_color="#000000" fill="#FFFFFF"/><path d="m168.207031 216h47.792969v-40.375c-13.648438-.8125-27.082031-3.816406-39.777344-8.898438-4.777344 16.011719-7.46875 32.574219-8.015625 49.273438zm0 0" data-original="#000000" class="active-path" data-old_color="#000000" fill="#FFFFFF"/><path d="m131.550781 370.558594c2.566407-2.097656 6.164063-2.398438 9.042969-.75 12.34375 7.082031 25.542969 12.558594 39.277344 16.296875 3.203125.863281 5.539062 3.617187 5.871094 6.917969l5.496093 54.976562h65.5625l5.496094-54.976562c.332031-3.300782 2.667969-6.054688 5.871094-6.917969 13.734375-3.738281 26.933593-9.214844 39.28125-16.296875 2.875-1.648438 6.472656-1.347656 9.039062.75l42.710938 34.992187 46.402343-46.351562-35.007812-42.773438c-2.097656-2.570312-2.390625-6.167969-.738281-9.042969 7.074219-12.351562 12.550781-25.554687 16.296875-39.285156.867187-3.203125 3.621094-5.535156 6.917968-5.867187l54.929688-5.429688v-65.519531l-54.96875-5.496094c-3.296875-.332031-6.050781-2.664062-6.917969-5.863281-3.746093-13.734375-9.222656-26.9375-16.296875-39.289063-1.652344-2.875-1.359375-6.472656.734375-9.039062l35.050781-42.792969-46.402343-46.351562-42.75 34.992187c-2.566407 2.097656-6.164063 2.398438-9.042969.75-12.34375-7.082031-25.542969-12.558594-39.277344-16.296875-3.203125-.863281-5.539062-3.617187-5.871094-6.917969l-5.457031-54.976562h-65.519531l-5.496094 54.976562c-.335937 3.300782-2.671875 6.054688-5.875 6.917969-13.730468 3.738281-26.933594 9.214844-39.277344 16.296875-2.878906 1.648438-6.472656 1.347656-9.039062-.75l-42.792969-34.992187-46.359375 46.351562 35.007813 42.773438c2.09375 2.570312 2.386719 6.167969.734375 9.042969-7.074219 12.351562-12.550782 25.554687-16.296875 39.285156-.867188 3.203125-3.621094 5.535156-6.917969 5.867187l-54.96875 5.46875v65.5625l54.96875 5.496094c3.296875.332031 6.050781 2.664063 6.917969 5.863281 3.746093 13.734375 9.222656 26.933594 16.296875 39.289063 1.652344 2.875 1.359375 6.46875-.734375 9.039062l-35.007813 42.710938 46.359375 46.351562zm236.449219-154.558594h16v16h-16zm-251.488281 126.800781-11.3125-11.320312 11.320312-11.3125 11.3125 11.320312zm115.488281 41.199219h-16v-16h16zm99.488281-41.199219-11.320312-11.3125 11.3125-11.320312 11.320312 11.3125zm0-237.601562 11.3125 11.320312-11.320312 11.3125-11.3125-11.320312zm-115.488281-41.199219h16v16h-16zm-99.488281 41.199219 11.320312 11.3125-11.3125 11.320312-11.320312-11.3125zm20.640625 24.914062c44.429687-40.945312 111.476562-45.140625 160.664062-10.050781 49.1875 35.085938 67.042969 99.851562 42.789063 155.1875-24.253907 55.335938-83.980469 86.097656-143.113281 73.707031-59.136719-12.390625-101.492188-64.539062-101.492188-124.957031-.097656-35.691406 14.839844-69.773438 41.152344-93.886719zm-57.152344 101.886719h-16v-16h16zm0 0" data-original="#000000" class="active-path" data-old_color="#000000" fill="#FFFFFF"/><path d="m181.214844 120.550781c-9.4375 3.914063-18.289063 9.113281-26.304688 15.449219 3.929688 3.09375 8.0625 5.914062 12.371094 8.449219 3.667969-8.496094 8.347656-16.519531 13.933594-23.898438zm0 0" data-original="#000000" class="active-path" data-old_color="#000000" fill="#FFFFFF"/><path d="m216 113.335938c-13.519531 4.078124-25.601562 18.160156-34.3125 38.320312 10.941406 4.472656 22.523438 7.171875 34.3125 8zm0 0" data-original="#000000" class="active-path" data-old_color="#000000" fill="#FFFFFF"/></g> </svg>
