<?xml version="1.0"?>
<svg xmlns="http://www.w3.org/2000/svg" id="Capa_1" enable-background="new 0 0 512 512" height="512px" viewBox="0 0 512 512" width="512px" class=""><g><path d="m451.683 421.952v-60.856h-180.683v-30.856h135.646v-330.24h-301.292v330.24h135.646v30.856h-180.683v60.856h-60.317v90.048h150.635v-90.048h-60.318v-30.856h150.683v30.856h-60.317v90.048h150.635v-90.048h-60.318v-30.856h150.683v30.856h-60.317v90.048h150.634v-90.048zm-316.329-391.952h241.293v270.24h-241.293zm-14.719 452h-90.635v-30.048h90.635zm180.682 0h-90.635v-30.048h90.635zm180.683 0h-90.635v-30.048h90.635z" data-original="#000000" class="active-path" data-old_color="#000000" fill="#FFFFFF"/><path d="m165.389 60.048h181.222v30h-181.222z" data-original="#000000" class="active-path" data-old_color="#000000" fill="#FFFFFF"/><path d="m165.389 120.096h181.222v30h-181.222z" data-original="#000000" class="active-path" data-old_color="#000000" fill="#FFFFFF"/><path d="m165.389 180.144h181.222v30h-181.222z" data-original="#000000" class="active-path" data-old_color="#000000" fill="#FFFFFF"/><path d="m165.389 240.192h181.222v30h-181.222z" data-original="#000000" class="active-path" data-old_color="#000000" fill="#FFFFFF"/></g> </svg>
