<?xml version="1.0"?>
<svg xmlns="http://www.w3.org/2000/svg" height="512px" viewBox="0 0 512 512" width="512px" class=""><g><path d="m0 467c0 24.8125 20.1875 45 45 45h422c24.8125 0 45-20.1875 45-45v-317h-512zm96.628906-162.714844 150-120c5.480469-4.382812 13.261719-4.382812 18.742188 0l150 120c4.972656 3.980469 6.890625 10.667969 4.78125 16.679688-2.105469 6.011718-7.78125 10.035156-14.152344 10.035156h-35v105c0 8.285156-6.714844 15-15 15h-60c-8.285156 0-15-6.714844-15-15v-65h-50v65c0 8.285156-6.714844 15-15 15h-60c-8.285156 0-15-6.714844-15-15v-105h-35c-6.371094 0-12.046875-4.023438-14.152344-10.035156-2.109375-6.011719-.191406-12.699219 4.78125-16.679688zm0 0" data-original="#000000" class="active-path" data-old_color="#000000" fill="#FFFFFF"/><path d="m171 316v105h30v-65c0-8.285156 6.714844-15 15-15h80c8.285156 0 15 6.714844 15 15v65h30v-105c0-8.285156 6.714844-15 15-15h7.238281l-107.238281-85.789062-107.238281 85.789062h7.238281c8.285156 0 15 6.714844 15 15zm0 0" data-original="#000000" class="active-path" data-old_color="#000000" fill="#FFFFFF"/><path d="m467 0h-422c-24.8125 0-45 20.1875-45 45v75h512v-75c0-24.8125-20.1875-45-45-45zm-150 75c-8.285156 0-15-6.714844-15-15s6.714844-15 15-15 15 6.714844 15 15-6.714844 15-15 15zm60 0c-8.285156 0-15-6.714844-15-15s6.714844-15 15-15 15 6.714844 15 15-6.714844 15-15 15zm60 0c-8.285156 0-15-6.714844-15-15s6.714844-15 15-15 15 6.714844 15 15-6.714844 15-15 15zm0 0" data-original="#000000" class="active-path" data-old_color="#000000" fill="#FFFFFF"/></g> </svg>
