<svg xmlns="http://www.w3.org/2000/svg" width="27.069" height="27.069" viewBox="0 0 27.069 27.069"><defs><style>.a{fill:#fff;}</style></defs><g transform="translate(-0.029)"><path class="a" d="M4.541,24.112a2.252,2.252,0,0,0-1.587-2.143A10.757,10.757,0,0,1,3.588,19.9a.451.451,0,1,0-.831-.352,11.637,11.637,0,0,0-.7,2.332,2.243,2.243,0,0,0,0,4.465,11.628,11.628,0,0,0,.7,2.332.451.451,0,1,0,.831-.352,10.757,10.757,0,0,1-.633-2.069A2.25,2.25,0,0,0,4.541,24.112Z" transform="translate(0 -10.578)"/><path class="a" d="M54.541,24.113a2.251,2.251,0,0,0-2.024-2.232,11.629,11.629,0,0,0-.7-2.332.451.451,0,1,0-.831.352,10.725,10.725,0,0,1,.633,2.069,2.24,2.24,0,0,0,0,4.286,10.757,10.757,0,0,1-.633,2.069.451.451,0,1,0,.831.352,11.659,11.659,0,0,0,.7-2.332A2.252,2.252,0,0,0,54.541,24.113Z" transform="translate(-27.443 -10.578)"/><path class="a" d="M46.43,11.973a.451.451,0,0,0,.714-.551,11.807,11.807,0,0,0-2.127-2.127.451.451,0,1,0-.552.714,10.9,10.9,0,0,1,1.965,1.964Z" transform="translate(-24.293 -5.05)"/><path class="a" d="M28.355,50.953a10.78,10.78,0,0,1-2.069.634,2.24,2.24,0,0,0-4.286,0,10.717,10.717,0,0,1-2.069-.634.451.451,0,1,0-.352.831,11.688,11.688,0,0,0,2.332.7,2.243,2.243,0,0,0,4.465,0,11.688,11.688,0,0,0,2.332-.7.451.451,0,0,0-.351-.831Z" transform="translate(-10.578 -27.443)"/><path class="a" d="M46.436,44.434A10.872,10.872,0,0,1,44.472,46.4a.451.451,0,1,0,.552.714,11.766,11.766,0,0,0,2.127-2.128.451.451,0,1,0-.714-.551Z" transform="translate(-24.296 -24.292)"/><path class="a" d="M10.044,44.441a.451.451,0,0,0-.714.551,11.807,11.807,0,0,0,2.127,2.127.451.451,0,1,0,.552-.714A10.9,10.9,0,0,1,10.044,44.441Z" transform="translate(-5.053 -24.295)"/><path class="a" d="M19.755,3.594a.447.447,0,0,0,.175-.036A10.78,10.78,0,0,1,22,2.925a2.24,2.24,0,0,0,4.286,0,10.717,10.717,0,0,1,2.069.634.451.451,0,0,0,.351-.831,11.688,11.688,0,0,0-2.332-.7,2.243,2.243,0,0,0-4.465,0,11.688,11.688,0,0,0-2.332.7.451.451,0,0,0,.176.867Z" transform="translate(-10.579 0)"/><path class="a" d="M9.681,12.154a.451.451,0,0,0,.357-.175A10.873,10.873,0,0,1,12,10.013.451.451,0,1,0,11.45,9.3a11.766,11.766,0,0,0-2.127,2.128.451.451,0,0,0,.357.727Z" transform="translate(-5.05 -5.052)"/><path class="a" d="M21.467,19.418l-2.6-1.3-2.6,1.3,2.6,1.3Z" transform="translate(-8.912 -9.944)"/><path class="a" d="M33.737,34.618,31.03,35.971v2.6l2.707-1.353Z" transform="translate(-17.015 -19)"/><path class="a" d="M32.266,19.418l2.6,1.3,2.6-1.3-2.6-1.3Z" transform="translate(-17.693 -9.944)"/><path class="a" d="M39.03,26.572l2.707-1.353v-2.6L39.03,23.971Z" transform="translate(-21.406 -12.414)"/><path class="a" d="M25.737,22.618,23.03,23.971v2.6l2.707-1.353Z" transform="translate(-12.624 -12.414)"/><path class="a" d="M33.737,23.971,31.03,22.618v2.6l2.707,1.353Z" transform="translate(-17.015 -12.414)"/><path class="a" d="M29.466,31.418l-2.6-1.3-2.6,1.3,2.6,1.3Z" transform="translate(-13.303 -16.53)"/><path class="a" d="M23.03,37.218l2.707,1.353v-2.6L23.03,34.618Z" transform="translate(-12.624 -19)"/><path class="a" d="M15.03,25.218l2.707,1.353v-2.6L15.03,22.618Z" transform="translate(-8.233 -12.414)"/></g></svg>