<svg xmlns="http://www.w3.org/2000/svg" width="25.402" height="24.235" viewBox="0 0 25.402 24.235"><defs><style>.a{fill:#fff;}</style></defs><g transform="translate(0 -10.655)"><g transform="translate(0 10.655)"><path class="a" d="M24.591,27.681h.81V34.89H19.675l-.43-2.352H9.674l-.43,2.352H3.519V25.3l1.493,1.148v2.683a.921.921,0,0,0,.92.92H23.111a.921.921,0,0,0,.92-.92V28.022A.923.923,0,0,0,24.591,27.681ZM3.519,10.655v6.678l1.493-1.148V13.336a.921.921,0,0,1,.92-.92H23.111a.922.922,0,0,1,.92.92v.08H25.4V10.655H3.519ZM24.686,22.844c.1,0,.257-.212.377-.614l-.378-1.259-.377,1.256C24.428,22.631,24.581,22.844,24.686,22.844Zm.563-2.1a5.819,5.819,0,0,0-.122-1.245l-.361,1.2.371,1.235A5.868,5.868,0,0,0,25.248,20.748Zm-1.125,0a5.85,5.85,0,0,0,.111,1.189L24.6,20.7l-.36-1.2A5.868,5.868,0,0,0,24.124,20.748Zm.927-1.527c-.118-.374-.263-.569-.365-.569s-.248.2-.365.572l.365,1.215ZM23.1,13.815a.928.928,0,0,0-.926-.92H6.6a.929.929,0,0,0-.927.928v1.855l.614-.472V13.822a.314.314,0,0,1,.313-.315H22.174a.313.313,0,0,1,.312.307H20.8v.844h-.936V26.929H20.8v.537h1.687v1.348a.314.314,0,0,1-.313.315H6.6a.314.314,0,0,1-.313-.315V27.431l-.614-.471v1.855a.928.928,0,0,0,.927.928H22.173a.928.928,0,0,0,.927-.928V27.466h.051v.215l2.25-.859V22.155c-.142.582-.382,1-.715,1-.57,0-.869-1.209-.869-2.4s.3-2.4.869-2.4c.334,0,.573.415.715,1V14.674l-2.249-.859Zm-4.856,3.538H8.462l-.242.614H18.243v-.614Zm0,4.249H16.711v.614h1.532V21.6ZM8.965,26.556h9.278v-.614H8.722ZM8,27.385a.307.307,0,0,0,.1-.358L6.592,23.2h8.852a.306.306,0,0,0,.306-.307V19.834a.306.306,0,0,0-.306-.307H6.593L8.1,15.7a.306.306,0,0,0-.471-.355L.12,21.122a.307.307,0,0,0,0,.487l7.512,5.774A.306.306,0,0,0,8,27.385Z" transform="translate(0 -10.655)"/></g></g></svg>