<?xml version="1.0"?>
<svg xmlns="http://www.w3.org/2000/svg" id="bold" enable-background="new 0 0 24 24" height="512px" viewBox="0 0 24 24" width="512px" class=""><g><path d="m17.5 11c-3.584 0-6.5 2.916-6.5 6.5s2.916 6.5 6.5 6.5 6.5-2.916 6.5-6.5-2.916-6.5-6.5-6.5zm2.207 8.707c-.195.195-.451.293-.707.293s-.512-.098-.707-.293l-1.5-1.5c-.188-.187-.293-.442-.293-.707v-2.5c0-.552.448-1 1-1s1 .448 1 1v2.086l1.207 1.207c.391.391.391 1.023 0 1.414z" data-original="#000000" class="active-path" data-old_color="#000000" fill="#FFFFFF"/><path d="m16.68 3.03-8-3c-.12-.04-.24-.04-.36 0l-8 3c-.19.07-.32.26-.32.47v6.43c0 9.12 8.31 11.04 8.39 11.06.04.01.07.01.11.01s.07 0 .11-.01c.02 0 .41-.09 1.01-.32-.4-.98-.62-2.05-.62-3.17 0-4.52 3.54-8.23 8-8.49v-5.51c0-.21-.13-.4-.32-.47z" data-original="#000000" class="active-path" data-old_color="#000000" fill="#FFFFFF"/></g> </svg>
