<?xml version="1.0"?>
<svg xmlns="http://www.w3.org/2000/svg" id="Capa_1" enable-background="new 0 0 512 512" height="512px" viewBox="0 0 512 512" width="512px" class=""><g><g><g><path d="m121 152v210h120v-210zm75 180h-30c-8.28 0-15-6.72-15-15s6.72-15 15-15h30c8.28 0 15 6.72 15 15s-6.72 15-15 15zm-75-180v210h120v-210zm75 180h-30c-8.28 0-15-6.72-15-15s6.72-15 15-15h30c8.28 0 15 6.72 15 15s-6.72 15-15 15zm-75-180v210h120v-210zm75 180h-30c-8.28 0-15-6.72-15-15s6.72-15 15-15h30c8.28 0 15 6.72 15 15s-6.72 15-15 15zm75-180v210h120v-210zm75 180h-30c-8.28 0-15-6.72-15-15s6.72-15 15-15h30c8.28 0 15 6.72 15 15s-6.72 15-15 15zm-75-180v210h120v-210zm75 180h-30c-8.28 0-15-6.72-15-15s6.72-15 15-15h30c8.28 0 15 6.72 15 15s-6.72 15-15 15zm-225-180v210h120v-210zm75 180h-30c-8.28 0-15-6.72-15-15s6.72-15 15-15h30c8.28 0 15 6.72 15 15s-6.72 15-15 15zm-75-180v210h120v-210zm75 180h-30c-8.28 0-15-6.72-15-15s6.72-15 15-15h30c8.28 0 15 6.72 15 15s-6.72 15-15 15zm75-180v210h120v-210zm75 180h-30c-8.28 0-15-6.72-15-15s6.72-15 15-15h30c8.28 0 15 6.72 15 15s-6.72 15-15 15zm-75-180v210h120v-210zm75 180h-30c-8.28 0-15-6.72-15-15s6.72-15 15-15h30c8.28 0 15 6.72 15 15s-6.72 15-15 15zm-225-180v210h120v-210zm75 180h-30c-8.28 0-15-6.72-15-15s6.72-15 15-15h30c8.28 0 15 6.72 15 15s-6.72 15-15 15zm-75-180v210h120v-210zm75 180h-30c-8.28 0-15-6.72-15-15s6.72-15 15-15h30c8.28 0 15 6.72 15 15s-6.72 15-15 15zm75-180v210h120v-210zm75 180h-30c-8.28 0-15-6.72-15-15s6.72-15 15-15h30c8.28 0 15 6.72 15 15s-6.72 15-15 15zm-75-180v210h120v-210zm75 180h-30c-8.28 0-15-6.72-15-15s6.72-15 15-15h30c8.28 0 15 6.72 15 15s-6.72 15-15 15zm-225 30h120v-210h-120zm45-60h30c8.28 0 15 6.72 15 15s-6.72 15-15 15h-30c-8.28 0-15-6.72-15-15s6.72-15 15-15zm270-302h-360c-24.81 0-45 20.19-45 45v422c0 24.81 20.19 45 45 45h360c24.81 0 45-20.19 45-45v-422c0-24.81-20.19-45-45-45zm-330 62c8.28 0 15 6.72 15 15s-6.72 15-15 15-15-6.72-15-15 6.72-15 15-15zm0 390c-8.28 0-15-6.72-15-15s6.72-15 15-15 15 6.72 15 15-6.72 15-15 15zm300 0c-8.28 0-15-6.72-15-15s6.72-15 15-15 15 6.72 15 15-6.72 15-15 15zm15-75c0 8.28-6.72 15-15 15h-300c-8.28 0-15-6.72-15-15v-240c0-8.28 6.72-15 15-15h300c8.28 0 15 6.72 15 15zm-15-285c-8.28 0-15-6.72-15-15s6.72-15 15-15 15 6.72 15 15-6.72 15-15 15zm-135 270h120v-210h-120zm45-60h30c8.28 0 15 6.72 15 15s-6.72 15-15 15h-30c-8.28 0-15-6.72-15-15s6.72-15 15-15zm-195 60h120v-210h-120zm45-60h30c8.28 0 15 6.72 15 15s-6.72 15-15 15h-30c-8.28 0-15-6.72-15-15s6.72-15 15-15zm-45-150v210h120v-210zm75 180h-30c-8.28 0-15-6.72-15-15s6.72-15 15-15h30c8.28 0 15 6.72 15 15s-6.72 15-15 15zm75-180v210h120v-210zm75 180h-30c-8.28 0-15-6.72-15-15s6.72-15 15-15h30c8.28 0 15 6.72 15 15s-6.72 15-15 15zm-75-180v210h120v-210zm75 180h-30c-8.28 0-15-6.72-15-15s6.72-15 15-15h30c8.28 0 15 6.72 15 15s-6.72 15-15 15zm-225-180v210h120v-210zm75 180h-30c-8.28 0-15-6.72-15-15s6.72-15 15-15h30c8.28 0 15 6.72 15 15s-6.72 15-15 15zm-75-180v210h120v-210zm75 180h-30c-8.28 0-15-6.72-15-15s6.72-15 15-15h30c8.28 0 15 6.72 15 15s-6.72 15-15 15zm75-180v210h120v-210zm75 180h-30c-8.28 0-15-6.72-15-15s6.72-15 15-15h30c8.28 0 15 6.72 15 15s-6.72 15-15 15zm-75-180v210h120v-210zm75 180h-30c-8.28 0-15-6.72-15-15s6.72-15 15-15h30c8.28 0 15 6.72 15 15s-6.72 15-15 15zm-225-180v210h120v-210zm75 180h-30c-8.28 0-15-6.72-15-15s6.72-15 15-15h30c8.28 0 15 6.72 15 15s-6.72 15-15 15zm-75-180v210h120v-210zm75 180h-30c-8.28 0-15-6.72-15-15s6.72-15 15-15h30c8.28 0 15 6.72 15 15s-6.72 15-15 15zm75-180v210h120v-210zm75 180h-30c-8.28 0-15-6.72-15-15s6.72-15 15-15h30c8.28 0 15 6.72 15 15s-6.72 15-15 15zm-75-180v210h120v-210zm75 180h-30c-8.28 0-15-6.72-15-15s6.72-15 15-15h30c8.28 0 15 6.72 15 15s-6.72 15-15 15zm-225-180v210h120v-210zm75 180h-30c-8.28 0-15-6.72-15-15s6.72-15 15-15h30c8.28 0 15 6.72 15 15s-6.72 15-15 15z" data-original="#000000" class="active-path" data-old_color="#000000" fill="#FFFFFF"/></g></g></g> </svg>
