<?xml version="1.0" encoding="utf-8"?>
<!-- Generator: Adobe Illustrator 23.0.3, SVG Export Plug-In . SVG Version: 6.00 Build 0)  -->
<svg version="1.1" id="Layer_1" xmlns="http://www.w3.org/2000/svg" xmlns:xlink="http://www.w3.org/1999/xlink" x="0px" y="0px"
	 viewBox="0 0 512 512" style="enable-background:new 0 0 512 512;" xml:space="preserve">
<style type="text/css">
	.st0{fill:#FFFFFF;}
</style>
<g>
	<path class="st0" d="M400,402.4c0-1.1,0-2.1,0-3.2c-0.4-78.5-64.4-142.6-142.9-143.2C177.2,255.4,112,320.2,112,400
		c0,1.1,0,2.2,0,3.3c1.1,48,34.8,89.1,81.4,100.9c20.3,5.1,41.3,7.8,62.6,7.8c21.2,0,42.2-2.6,62.6-7.8
		C365.5,492.4,399.2,450.8,400,402.4L400,402.4z"/>
	<path class="st0" d="M437,75C388.9,26.9,324,0,256,0C187.6,0,123.3,26.6,75,75C26.6,123.3,0,187.6,0,256
		c0,60.3,21.4,118.9,60.3,165c4.5,5.4,9.3,10.5,14.2,15.5c3.5,3.5,9.3,0.3,8.4-4.5C81,421.7,80,410.9,80,400
		c0-73,44.7-135.8,108.2-162.4c3.3-1.4,4.1-5.7,1.6-8.2c-19.1-18.2-30.7-44.2-29.7-72.8c1.7-50,42.2-90.6,92.1-92.5
		C306.9,62,352,105.8,352,160c0,27.3-11.4,51.9-29.8,69.4c-2.6,2.5-1.7,6.8,1.6,8.2C387.3,264.2,432,327,432,400
		c0,10.9-1,21.7-2.9,32c-0.9,4.8,5,8,8.4,4.5c5-5,9.7-10.2,14.3-15.5c38.9-46.1,60.3-104.6,60.3-165C512,187.6,485.4,123.3,437,75z"
		/>
	<circle class="st0" cx="256" cy="160" r="64"/>
</g>
</svg>
