<?xml version="1.0"?>
<svg xmlns="http://www.w3.org/2000/svg" id="Glyph" viewBox="0 0 512 512" width="512px" height="512px"><g><path d="M360,32H480V480H360a24.028,24.028,0,0,1-24-24V395.488L445.443,293.862a8,8,0,0,0,0-11.724L336,180.512V56A24.028,24.028,0,0,1,360,32ZM216,336h56V456a24.028,24.028,0,0,1-24,24H32V416H56a8,8,0,0,0,0-16H32V320H168a8,8,0,0,0,0-16H32V272H56a8,8,0,0,0,0-16H32V224h88a8,8,0,0,0,0-16H32V176H232a8,8,0,0,0,0-16H32V128H64a8,8,0,0,0,0-16H32V32H176V88a40.045,40.045,0,0,0,40,40h56V240H216a8,8,0,0,0-8,8v80A8,8,0,0,0,216,336ZM144,216a8,8,0,0,0,8,8h56a8,8,0,0,0,0-16H152A8,8,0,0,0,144,216Zm32,48a8,8,0,0,0-8-8H88a8,8,0,0,0,0,16h80A8,8,0,0,0,176,264Zm-16,96a8,8,0,0,0,8,8h32a8,8,0,0,0,0-16H168A8,8,0,0,0,160,360Zm-24,8a8,8,0,0,0,0-16H56a8,8,0,0,0,0,16Zm40,40a8,8,0,0,0-8-8H88a8,8,0,0,0,0,16h80A8,8,0,0,0,176,408Zm56-8H200a8,8,0,0,0,0,16h32a8,8,0,0,0,0-16ZM216,112h44.687L192,43.313V88A24.027,24.027,0,0,0,216,112ZM336,373.654,428.243,288,336,202.346V248a8,8,0,0,1-8,8H224v64H328a8,8,0,0,1,8,8Z" data-original="#000000" class="active-path" data-old_color="#000000" fill="#5C78FF"/></g> </svg>
